<?xml version="1.0" encoding="utf-8"?>
<!-- Generator: Adobe Illustrator 24.1.2, SVG Export Plug-In . SVG Version: 6.00 Build 0)  -->
<svg version="1.1" id="Слой_1" xmlns="http://www.w3.org/2000/svg" xmlns:xlink="http://www.w3.org/1999/xlink" x="0px" y="0px"
	 viewBox="0 0 128.68 54.58" style="enable-background:new 0 0 128.68 54.58;" xml:space="preserve">
<style type="text/css">
	.st0{fill:white;stroke-width:2;stroke-miterlimit:10;}
	.st1{fill:white;font-family:'SegoeUI-Bold';}
	.st2{font-size:24px;}
</style>
<g>
	<circle class="st0" cx="103.04" cy="25.64" r="7.04"/>
	<path class="st0" d="M127.68,25.64c0,2.15-1.07,4.05-2.71,5.19c-0.17,0.08-0.32,0.18-0.46,0.3c-0.65,0.51-1.08,1.32-1.08,2.22
		c0,0.34,0.06,0.67,0.18,0.97c0.04,0.08,0.07,0.15,0.1,0.24c0.3,0.73,0.46,1.52,0.46,2.35c0,3.5-2.84,6.34-6.34,6.34
		c-0.06,0-0.13,0-0.2-0.01h-0.13c-1.23,0.03-2.27,0.85-2.62,1.97c0,0.01,0,0.01,0,0.01c-0.04,0.11-0.06,0.23-0.08,0.36
		c-0.72,2.71-3.19,4.7-6.13,4.7c-3.5,0-6.34-2.84-6.34-6.34c0-3.5,2.84-6.34,6.34-6.34c0.07,0,0.14,0,0.21,0.01H109
		c1.22-0.03,2.25-0.83,2.61-1.94c0.05-0.14,0.08-0.3,0.11-0.45c0.43-1.56,1.44-2.89,2.79-3.72c0.75-0.51,1.25-1.37,1.25-2.34
		c0-0.27-0.04-0.54-0.11-0.79v-0.01c-0.06-0.2-0.14-0.39-0.24-0.56c0-0.01,0-0.01,0-0.01c-0.25-0.68-0.39-1.41-0.39-2.17
		c0-0.85,0.17-1.67,0.48-2.41c0.02-0.03,0.03-0.06,0.04-0.08c0.14-0.32,0.21-0.68,0.21-1.06c0-0.95-0.47-1.79-1.19-2.3
		c-0.08-0.06-0.17-0.11-0.26-0.16c-0.01-0.01-0.02-0.01-0.04-0.02c-1.23-0.84-2.13-2.09-2.53-3.56c-0.02-0.15-0.06-0.31-0.11-0.45
		c-0.36-1.11-1.39-1.91-2.61-1.94h-0.11c-0.07,0.01-0.14,0.01-0.21,0.01c-3.5,0-6.34-2.84-6.34-6.34c0-3.5,2.84-6.34,6.34-6.34
		c2.94,0,5.41,1.99,6.13,4.7c0.03,0.12,0.06,0.24,0.08,0.36c0,0.01,0,0.01,0,0.01c0.35,1.12,1.39,1.94,2.62,1.97h0.13
		c0.06-0.01,0.13-0.01,0.2-0.01c3.5,0,6.34,2.84,6.34,6.34c0,0.8-0.15,1.58-0.43,2.28c-0.06,0.11-0.11,0.23-0.15,0.35
		c-0.1,0.29-0.15,0.6-0.15,0.92c0,0.92,0.44,1.73,1.12,2.25c0.13,0.09,0.26,0.18,0.4,0.25C126.61,21.58,127.68,23.48,127.68,25.64z"
		/>
	<path class="st0" d="M124.95,20.43c-0.14-0.07-0.27-0.15-0.4-0.25c-0.68-0.52-1.12-1.33-1.12-2.25c0-0.32,0.06-0.63,0.15-0.92
		c0.06-0.11,0.11-0.23,0.15-0.35"/>
	<path class="st0" d="M123.71,34.56c-0.03-0.08-0.06-0.16-0.1-0.24c-0.11-0.3-0.18-0.63-0.18-0.97c0-0.9,0.42-1.7,1.08-2.22
		c0.14-0.11,0.3-0.21,0.46-0.3"/>
	<path class="st0" d="M114.8,45.58c0.02-0.13,0.05-0.25,0.08-0.36c0,0,0-0.01,0-0.01c0.35-1.12,1.39-1.94,2.62-1.97h0.13"/>
	<path class="st0" d="M111.72,35.23c-0.02,0.15-0.06,0.31-0.11,0.45c-0.36,1.11-1.39,1.91-2.61,1.94h-0.11"/>
	<path class="st0" d="M115.4,27.81C115.4,27.81,115.4,27.81,115.4,27.81c0.07,0.2,0.15,0.39,0.24,0.57v0.01
		c0.07,0.25,0.11,0.51,0.11,0.79c0,0.97-0.49,1.83-1.25,2.34"/>
	<path class="st0" d="M114.25,19.61c0.01,0.01,0.03,0.01,0.04,0.02c0.08,0.06,0.17,0.11,0.26,0.16c0.72,0.51,1.19,1.34,1.19,2.3
		c0,0.37-0.07,0.73-0.21,1.06c-0.01,0.03-0.01,0.06-0.04,0.08"/>
	<path class="st0" d="M108.89,13.67H109c1.22,0.03,2.25,0.83,2.61,1.94c0.05,0.14,0.08,0.3,0.11,0.45"/>
	<path class="st0" d="M117.63,8.05h-0.13c-1.23-0.03-2.27-0.85-2.62-1.97c0-0.01,0-0.01,0-0.01c-0.03-0.12-0.06-0.24-0.08-0.36"/>
</g>
<text transform="matrix(1 0 0 1 3.411770e-04 21.8929)" class="st1 st2">Product</text>
<text transform="matrix(1.0686 0 0 1 1.940727e-04 44.2471)" class="st1 st2">Factory</text>
</svg>
